@startuml
' package: https://openc2_stix_sco
' version: 0-wd01 
' title: STIX SCO Core jadn
' exports: ['STIX-Cybersecurity-Observables', 'SCO', 'artifact', 'autonomous_system', 'directory', 'domain_name', 'email_addr', 'email_message', 'file', 'ipv4_addr', 'ipv6_addr', 'mac_addr', 'mutex', 'network_traffic', 'process', 'software', 'url', 'user_account', 'windows_registry_key']
' config: {'$MaxBinary': 5555, '$MaxString': 5555, '$MaxElements': 555, '$Sys': '$', '$TypeName': '^[A-Za-z][-:_A-Za-z0-9]{0,63}$', '$FieldName': '^[A-Za-z][-:_A-Za-z0-9]{0,63}$', '$NSID': '^[A-Za-z][A-Za-z0-9]{0,7}$'}

' !theme spacelab
hide empty members
hide circle

class "STIX-Cybersecurity-Observables" as n0 <<ArrayOf>>
class "SCO" as n1 <<Choice>>
  n1 : 1 Artifact : artifact [0..1]
  n1 : 2 Autonomous-System : autonomous-system [0..1]
  n1 : 3 Directory : directory [0..1]
  n1 : 4 Domain-Name : domain-name [0..1]
  n1 : 5 Email-Addr : email-addr [0..1]
  n1 : 6 File : file [0..1]
  n1 : 7 IPv4-Addr : ipv4-addr [0..1]
  n1 : 8 IPv6-Addr : ipv6-addr [0..1]
  n1 : 9 Mac-Addr : mac-addr [0..1]
  n1 : 10 Mutex : mutex [0..1]
  n1 : 11 Network-Traffic : network-traffic [0..1]
  n1 : 12 Process : process [0..1]
  n1 : 13 Software : software [0..1]
  n1 : 14 URL : url [0..1]
  n1 : 15 User-Account : user-account [0..1]
  n1 : 16 Windows-Registry-Key : windows-registry-key [0..1]
  n1 : 17 X509-Certificate : x509-certificate [0..1]
class "artifact" as n2 <<Record>>
  n2 : 1 type : String{pattern="^artifact$"}
  n2 : 2 id : String{pattern="^artifact--"}
  n2 : 3 mime_type : String{pattern="^{application|audio|font|image|message|model|multipart|text|video}/[a-zA-Z0-9.+_-]+"}
  n2 : 4 payload_bin : Binary [0..1]
  n2 : 5 url : url
  n2 : 6 hashes : ArrayOf{hashes} [0..1]
  n2 : 7 encryption_algorithm : encryption_algorithm_enum [0..1]
  n2 : 8 decryption_key : String [0..1]
  n2 : 9 spec_version : spec_version [0..1]
  n2 : 10 object_marking_refs : object_marking_refs [0..1]
  n2 : 11 granular_markings : granular_markings [0..1]
  n2 : 12 defanged : defanged [0..1]
  n2 : 13 core_extensions : extensions [0..1]
class "autonomous-system" as n4 <<Record>>
  n4 : 1 type : String{pattern="^autonomous-system$"}
  n4 : 2 id : String{pattern="^autonomous-system--"}
  n4 : 3 number : Integer
  n4 : 4 name : String [0..1]
  n4 : 5 rir : String [0..1]
  n4 : 6 spec_version : spec_version [0..1]
  n4 : 7 object_marking_refs : object_marking_refs [0..1]
  n4 : 8 granular_markings : granular_markings [0..1]
  n4 : 9 defanged : defanged [0..1]
  n4 : 10 core_extensions : extensions [0..1]
class "directory" as n5 <<Record>>
  n5 : 1 type : String{pattern="^directory$"}
  n5 : 2 id : String{pattern="^directory--"}
  n5 : 3 path : String
  n5 : 4 path_enc : String{pattern="^[a-zA-Z0-9/\\.+_:-]{2,250}$"}
  n5 : 5 ctime : timestamp
  n5 : 6 mtime : timestamp
  n5 : 7 atime : timestamp
  n5 : 8 contains_refs : ArrayOf{String}{1..*}
  n5 : 9 spec_version : spec_version [0..1]
  n5 : 10 object_marking_refs : object_marking_refs [0..1]
  n5 : 11 granular_markings : granular_markings [0..1]
  n5 : 12 defanged : defanged [0..1]
  n5 : 13 core_extensions : extensions [0..1]
class "domain-name" as n6 <<Record>>
  n6 : 1 type : String{pattern="^domain-name$"}
  n6 : 2 id : String{pattern="^domain-name--"}
  n6 : 3 domain_name : String
  n6 : 4 resolves_to_refs : ArrayOf{String}
  n6 : 5 spec_version : spec_version [0..1]
  n6 : 6 object_marking_refs : object_marking_refs [0..1]
  n6 : 7 granular_markings : granular_markings [0..1]
  n6 : 8 defanged : defanged [0..1]
  n6 : 9 core_extensions : extensions [0..1]
class "email-addr" as n7 <<Record>>
  n7 : 1 type : String{pattern="^email-addr$"}
  n7 : 2 id : String{pattern="^email-addr--"}
  n7 : 3 email_address : String
  n7 : 4 display_name : String [0..1]
  n7 : 5 belongs_to_ref : String [0..1]
  n7 : 6 spec_version : spec_version [0..1]
  n7 : 7 object_marking_refs : object_marking_refs [0..1]
  n7 : 8 granular_markings : granular_markings [0..1]
  n7 : 9 defanged : defanged [0..1]
  n7 : 10 core_extensions : extensions [0..1]
class "email-message" as n8 <<Record>>
  n8 : 1 type : String{pattern="^email-message$"}
  n8 : 2 id : String{pattern="^email-message--"}
  n8 : 3 date : timestamp [0..1]
  n8 : 4 content_type : String [0..1]
  n8 : 5 from_ref : String [0..1]
  n8 : 6 sender_ref : spec_version [0..1]
  n8 : 7 to_refs : ArrayOf{String}{1..*} [0..1]
  n8 : 8 cc_refs : ArrayOf{String}{1..*} [0..1]
  n8 : 9 bcc_refs : ArrayOf{String}{1..*} [0..1]
  n8 : 10 message_id : String [0..1]
  n8 : 11 subject : String [0..1]
  n8 : 12 received_lines : ArrayOf{String} [0..1]
  n8 : 13 additional_header_fields : ArrayOf{email-additional-header-fields} [0..1]
  n8 : 14 raw_email_ref : String [0..1]
  n8 : 15 is_multipart : Boolean
  n8 : 16 body_multipart : ArrayOf{mime-part-type} [0..1]
  n8 : 17 body : String [0..1]
  n8 : 18 spec_version : spec_version [0..1]
  n8 : 19 object_marking_refs : object_marking_refs [0..1]
  n8 : 20 granular_markings : granular_markings [0..1]
  n8 : 21 defanged : defanged [0..1]
  n8 : 22 core_extensions : extensions [0..1]
class "file" as n9 <<Record>>
  n9 : 1 type : String{pattern="^file$"}
  n9 : 2 id : String{pattern="^file--"}
  n9 : 3 extensions : String [0..1]
  n9 : 4 hashes : ArrayOf{hashes} [0..1]
  n9 : 5 size : Integer{0..*} [0..1]
  n9 : 6 name : String
  n9 : 7 name_enc : String{pattern="^[a-zA-Z0-9/\\.+_:-]{2,250}$"} [0..1]
  n9 : 8 magic_number_hex : Hex [0..1]
  n9 : 9 mime_type : String [0..1]
  n9 : 10 ctime : timestamp [0..1]
  n9 : 11 mtime : timestamp [0..1]
  n9 : 12 atime : timestamp [0..1]
  n9 : 13 parent_directory : String [0..1]
  n9 : 14 contains_refs : ArrayOf{String}{1..*} [0..1]
  n9 : 15 content_ref : String [0..1]
  n9 : 16 spec_version : spec_version [0..1]
  n9 : 17 object_marking_refs : object_marking_refs [0..1]
  n9 : 18 granular_markings : granular_markings [0..1]
  n9 : 19 defanged : defanged [0..1]
  n9 : 20 core_extensions : extensions [0..1]
class "ipv4-addr" as n10 <<Record>>
  n10 : 1 type : String{pattern="^ipv4-addr$"}
  n10 : 2 id : String{pattern="^ipv4-addr--"}
  n10 : 3 ipv4_addr : String{pattern="^{{[0-9]|[1-9][0-9]|1[0-9]{2}|2[0-4][0-9]|25[0-5]}\\.}{3}{[0-9]|[1-9][0-9]|1[0-9]{2}|2[0-4][0-9]|25[0-5]}{\\/{3[0-2]|[1-2][0-9]|[0-9]}}?$"}{1..*}
  n10 : 4 resolves_to_refs : ArrayOf{String}
  n10 : 5 belongs_to_refs : String
  n10 : 6 spec_version : spec_version [0..1]
  n10 : 7 object_marking_refs : object_marking_refs [0..1]
  n10 : 8 granular_markings : granular_markings [0..1]
  n10 : 9 defanged : defanged [0..1]
  n10 : 10 core_extensions : extensions [0..1]
class "ipv6-addr" as n11 <<Record>>
  n11 : 1 type : String{pattern="^ipv6-addr$"}
  n11 : 2 id : String{pattern="^ipv6-addr--"}
  n11 : 3 ipv6_addr : String{pattern="^s*{{{[0-9A-Fa-f]{1,4}:}{7}{[0-9A-Fa-f]{1,4}|:}}|{{[0-9A-Fa-f]{1,4}:}{6}{:[0-9A-Fa-f]{1,4}|{{25[0-5]|2[0-4]d|1dd|[1-9]?d}{.{25[0-5]|2[0-4]d|1dd|[1-9]?d}}{3}}|:}}|{{[0-9A-Fa-f]{1,4}:}{5}{{{:[0-9A-Fa-f]{1,4}}{1,2}}|:{{25[0-5]|2[0-4]d|1dd|[1-9]?d}{.{25[0-5]|2[0-4]d|1dd|[1-9]?d}}{3}}|:}}|{{[0-9A-Fa-f]{1,4}:}{4}{{{:[0-9A-Fa-f]{1,4}}{1,3}}|{{:[0-9A-Fa-f]{1,4}}?:{{25[0-5]|2[0-4]d|1dd|[1-9]?d}{.{25[0-5]|2[0-4]d|1dd|[1-9]?d}}{3}}}|:}}|{{[0-9A-Fa-f]{1,4}:}{3}{{{:[0-9A-Fa-f]{1,4}}{1,4}}|{{:[0-9A-Fa-f]{1,4}}{0,2}:{{25[0-5]|2[0-4]d|1dd|[1-9]?d}{.{25[0-5]|2[0-4]d|1dd|[1-9]?d}}{3}}}|:}}|{{[0-9A-Fa-f]{1,4}:}{2}{{{:[0-9A-Fa-f]{1,4}}{1,5}}|{{:[0-9A-Fa-f]{1,4}}{0,3}:{{25[0-5]|2[0-4]d|1dd|[1-9]?d}{.{25[0-5]|2[0-4]d|1dd|[1-9]?d}}{3}}}|:}}|{{[0-9A-Fa-f]{1,4}:}{1}{{{:[0-9A-Fa-f]{1,4}}{1,6}}|{{:[0-9A-Fa-f]{1,4}}{0,4}:{{25[0-5]|2[0-4]d|1dd|[1-9]?d}{.{25[0-5]|2[0-4]d|1dd|[1-9]?d}}{3}}}|:}}|{:{{{:[0-9A-Fa-f]{1,4}}{1,7}}|{{:[0-9A-Fa-f]{1,4}}{0,5}:{{25[0-5]|2[0-4]d|1dd|[1-9]?d}{.{25[0-5]|2[0-4]d|1dd|[1-9]?d}}{3}}}|:}}}{%.+}?s*{\\/{12[0-8]|1[0-1][0-9]|[1-9][0-9]|[0-9]}}?$"}{1..*}
  n11 : 4 resolves_to_refs : ArrayOf{String}
  n11 : 5 belongs_to_refs : ArrayOf{String}
  n11 : 6 spec_version : spec_version [0..1]
  n11 : 7 object_marking_refs : object_marking_refs [0..1]
  n11 : 8 granular_markings : granular_markings [0..1]
  n11 : 9 defanged : defanged [0..1]
  n11 : 10 core_extensions : extensions [0..1]
class "mac-addr" as n12 <<Record>>
  n12 : 1 type : String{pattern="^mac-addr$"}
  n12 : 2 id : String{pattern="^mac-addr--"}
  n12 : 3 mac_address_value : String{pattern="^{[0-9a-f]{2}[:]}{5}{[0-9a-f]{2}}$"}
  n12 : 4 spec_version : spec_version [0..1]
  n12 : 5 object_marking_refs : object_marking_refs [0..1]
  n12 : 6 granular_markings : granular_markings [0..1]
  n12 : 7 defanged : defanged [0..1]
  n12 : 8 core_extensions : extensions [0..1]
class "mutex" as n13 <<Record>>
  n13 : 1 type : String{pattern="^mutex$"}
  n13 : 2 id : String{pattern="^mutex--"}
  n13 : 3 name : String
  n13 : 4 spec_version : spec_version [0..1]
  n13 : 5 object_marking_refs : object_marking_refs [0..1]
  n13 : 6 granular_markings : granular_markings [0..1]
  n13 : 7 defanged : defanged [0..1]
  n13 : 8 core_extensions : extensions [0..1]
class "network-traffic" as n14 <<Record>>
  n14 : 1 type : String{pattern="^network-traffic$"}
  n14 : 2 id : String{pattern="^network-traffic--"}
  n14 : 3 extensions : network_traffic_extensions_dictionary [0..1]
  n14 : 4 start : String{pattern="^[0-9]{4}-[0-9]{2}-[0-9]{2}T[0-9]{2}:[0-9]{2}:[0-9]{2}Z"}
  n14 : 5 stop : String{pattern="^[0-9]{4}-[0-9]{2}-[0-9]{2}T[0-9]{2}:[0-9]{2}:[0-9]{2}Z"}
  n14 : 6 is_active : Boolean
  n14 : 7 src_port : Integer{0..65535}
  n14 : 8 dst_port : Integer{0..65535} [0..1]
  n14 : 9 protocols : ArrayOf{String}{1..*}
  n14 : 10 src_byte_count : Integer [0..1]
  n14 : 11 dst_byte_count : Integer [0..1]
  n14 : 12 src_packets : Integer [0..1]
  n14 : 13 dst_packets : Integer [0..1]
  n14 : 14 ipfix : ipfix_choice [0..1]
  n14 : 15 src_payload_ref : String [0..1]
  n14 : 16 dst_payload_ref : String [0..1]
  n14 : 17 encapsulates_refs : ArrayOf{String}{1..*}
  n14 : 18 encapsulated_by_ref : String [0..1]
  n14 : 19 spec_version : spec_version [0..1]
  n14 : 20 object_marking_refs : object_marking_refs [0..1]
  n14 : 21 granular_markings : granular_markings [0..1]
  n14 : 22 defanged : defanged [0..1]
  n14 : 23 core_extensions : extensions [0..1]
class "ipfix_choice" as n15 <<Choice>>
  n15 : 1 ipfix_string : String
  n15 : 2 ipfix_integer : Integer
class "process" as n16 <<Record>>
  n16 : 1 type : String{pattern="^process$"}
  n16 : 2 id : String{pattern="^process--"}
  n16 : 3 extensions : process_extensions_dictionary [0..1]
  n16 : 4 is_hidden : Boolean [0..1]
  n16 : 5 pid : Integer [0..1]
  n16 : 6 created_time : timestamp [0..1]
  n16 : 7 cwd : String [0..1]
  n16 : 8 command_line : String [0..1]
  n16 : 9 environment_variables : ArrayOf{String} [0..1]
  n16 : 10 opened_connection_refs : String [0..1]
  n16 : 11 creator_user_ref : ArrayOf{String}{1..*} [0..1]
  n16 : 12 image_ref : String [0..1]
  n16 : 13 parent_ref : String [0..1]
  n16 : 14 child_refs : ArrayOf{String}{1..*} [0..1]
  n16 : 15 spec_version : spec_version [0..1]
  n16 : 16 object_marking_refs : object_marking_refs [0..1]
  n16 : 17 granular_markings : granular_markings [0..1]
  n16 : 18 defanged : defanged [0..1]
  n16 : 19 core_extensions : extensions [0..1]
class "software" as n17 <<Record>>
  n17 : 1 type : String{pattern="^software$"}
  n17 : 2 id : String
  n17 : 3 name : String{1..*}
  n17 : 4 cpe : String{pattern="cpe:2\\.3:[aho\\*\\-]{:{{{\\?*|\\*?}{[a-zA-Z0-9\\-\\._]|{\\\\[\\\\\\*\\?!\"#$$%&'\\{\\}\\+,/:;<=>@\\[\\]\\^`\\{\\|}~]}}+{\\?*|\\*?}}|[\\*\\-]}}{5}{:{{[a-zA-Z]{2,3}{-{[a-zA-Z]{2}|[0-9]{3}}}?}|[\\*\\-]}}{:{{{\\?*|\\*?}{[a-zA-Z0-9\\-\\._]|{\\\\[\\\\\\*\\?!\"#$$%&'\\{\\}\\+,/:;<=>@\\[\\]\\^`\\{\\|}~]}}+{\\?*|\\*?}}|[\\*\\-]}}{4}"}
  n17 : 5 swid : String
  n17 : 6 languages : ArrayOf{String}
  n17 : 7 vendor : String
  n17 : 8 version : String
  n17 : 9 spec_version : spec_version [0..1]
  n17 : 10 object_marking_refs : object_marking_refs [0..1]
  n17 : 11 granular_markings : granular_markings [0..1]
  n17 : 12 defanged : defanged [0..1]
  n17 : 13 core_extensions : extensions [0..1]
class "user-account" as n18 <<Record>>
  n18 : 1 type : String{pattern="^user-account$"}
  n18 : 2 id : String{pattern="^user-account--"}
  n18 : 3 user_account_extensions : user_account_extensions_dictionary [0..1]
  n18 : 4 user_id : String [0..1]
  n18 : 5 credential : String [0..1]
  n18 : 6 account_login : String [0..1]
  n18 : 7 account_type : String [0..1]
  n18 : 8 display_name : String [0..1]
  n18 : 9 is_service_account : Boolean [0..1]
  n18 : 10 is_privileged : Boolean [0..1]
  n18 : 11 can_escalate_privs : Boolean [0..1]
  n18 : 12 is_disabled : Boolean [0..1]
  n18 : 13 account_created : timestamp [0..1]
  n18 : 14 account_expires : timestamp [0..1]
  n18 : 15 credential_last_changed : timestamp [0..1]
  n18 : 16 account_first_login : timestamp [0..1]
  n18 : 17 account_last_login : timestamp [0..1]
  n18 : 18 spec_version : spec_version [0..1]
  n18 : 19 object_marking_refs : object_marking_refs [0..1]
  n18 : 20 granular_markings : granular_markings [0..1]
  n18 : 21 defanged : defanged [0..1]
  n18 : 22 core_extensions : extensions [0..1]
class "url" as n19 <<Record>>
  n19 : 1 type : String{pattern="^url$"}
  n19 : 2 id : String{pattern="^url"}
  n19 : 3 url_value : String{pattern="^{{[^:/?#]+}:}?{//{[^/?#]*}}?{[^?#]*}{\?{[^#]*}}?{#{.*}}?"}
  n19 : 4 spec_version : spec_version [0..1]
  n19 : 5 object_marking_refs : object_marking_refs [0..1]
  n19 : 6 granular_markings : granular_markings [0..1]
  n19 : 7 defanged : defanged [0..1]
  n19 : 8 core_extensions : extensions [0..1]
class "windows-registry-key" as n20 <<Record>>
  n20 : 1 type : String{pattern="^windows-registry-key$"}
  n20 : 2 id : String{pattern="^windows-registry-key--"}
  n20 : 3 key : String{pattern="^{{?!{{^|, }{HKLM|HKCC|HKCR|HKCU|HKU|hklm|hkcc|hkcr|hkcu|hku}}+$}.}*$"}
  n20 : 4 registry_values : ArrayOf{windows_registry_value_type} [0..1]
  n20 : 5 modified_time : timestamp [0..1]
  n20 : 6 creator_user_ref : String [0..1]
  n20 : 7 number_of_subkeys : Integer [0..1]
  n20 : 8 spec_version : spec_version [0..1]
  n20 : 9 object_marking_refs : object_marking_refs [0..1]
  n20 : 10 granular_markings : granular_markings [0..1]
  n20 : 11 defanged : defanged [0..1]
  n20 : 12 core_extensions : extensions [0..1]
class "x509-certificate" as n21 <<Record>>
  n21 : 1 type : String{pattern="^x509-certificate$"}
  n21 : 2 id : String{pattern="^x509-certificate--"}
  n21 : 3 is_self_signed : Boolean [0..1]
  n21 : 4 hashes : ArrayOf{hashes} [0..1]
  n21 : 5 version : String [0..1]
  n21 : 6 serial_number : String [0..1]
  n21 : 7 signature_algorithm : String [0..1]
  n21 : 8 issuer : String [0..1]
  n21 : 9 validity_not_before : timestamp [0..1]
  n21 : 10 validity_not_after : timestamp [0..1]
  n21 : 11 subject : spec_version [0..1]
  n21 : 12 subject_public_key_algorithm : String [0..1]
  n21 : 13 subject_public_key_modulus : String [0..1]
  n21 : 14 subject_public_key_extensions : Integer [0..1]
  n21 : 15 x509_v3_extensions : ArrayOf{x509_v3_extensions_type} [0..1]
  n21 : 16 spec_version : spec_version [0..1]
  n21 : 17 object_marking_refs : object_marking_refs [0..1]
  n21 : 18 granular_markings : granular_markings [0..1]
  n21 : 19 defanged : defanged [0..1]
  n21 : 20 core_extensions : extensions [0..1]
class "mime-part-type" as n22 <<Record>>
  n22 : 1 body : String [0..1]
  n22 : 2 body_raw_ref : String [0..1]
  n22 : 3 content_type : String [0..1]
  n22 : 4 content_disposition : String [0..1]
class "email-additional-header-fields" as n23 <<ArrayOf>>
class "email_additional_header_field" as n24 <<MapOf>>
class "email_additional_header_value" as n26 <<Choice>>
  n26 : 1 String_Value : String{pattern="[a-zA-Z0-9_-]{0,250}^$"}
  n26 : 2 String_Array : ArrayOf{String}{2..*}
class "windows_registry_value_type" as n27 <<Record>>
  n27 : 1 name : String [0..1]
  n27 : 2 data : String [0..1]
  n27 : 3 registry_data_type : win_registry_data_type [0..1]
class "x509_certificate_extensions_type" as n29 <<Record>>
  n29 : 1 basic_constraints : String [0..1]
  n29 : 2 name_constraints : String [0..1]
  n29 : 3 policy_constraints : String [0..1]
  n29 : 4 key_usage : String [0..1]
  n29 : 5 extend_key_usage : String [0..1]
  n29 : 6 subject_key_identifier : String [0..1]
  n29 : 7 authority_key_identifier : String [0..1]
  n29 : 8 subject_alternative_name : String [0..1]
  n29 : 9 issuer_alternative_name : String [0..1]
  n29 : 10 subject_directory_attributes : String [0..1]
  n29 : 11 crt_distribution_points : String [0..1]
  n29 : 12 inhibit_any_policy : String [0..1]
  n29 : 13 private_key_usage_period_not_before : timestamp [0..1]
  n29 : 14 private_key_usage_period_not_after : timestamp [0..1]
  n29 : 15 certificate_policies : String [0..1]
  n29 : 16 policy_mappings : String [0..1]
class "file_extensions_dictionary" as n30 <<Record>>
  n30 : 1 ntfs_ext : ntfs_ext [0..1]
class "ntfs_ext" as n31 <<Record>>
  n31 : 1 sid : String [0..1]
  n31 : 2 alternate_data_streams : ArrayOf{ntfs_atlternate_data_stream} [0..1]
class "ntfs_atlternate_data_stream" as n32 <<Record>>
  n32 : 1 name : String
  n32 : 2 hashes : ArrayOf{hashes} [0..1]
  n32 : 3 size : Integer{0..*} [0..1]
class "hashes" as n33 <<Record>>
  n33 : 1 MD5 : String{pattern="^[a-fA-F0-9]{32}$"} [0..1]
  n33 : 2 SHA-1 : String{pattern="^[a-fA-F0-9]{40}$"} [0..1]
  n33 : 3 SHA-256 : String{pattern="^[a-fA-F0-9]{64}$"} [0..1]
  n33 : 4 SHA-512 : String{pattern="^[a-fA-F0-9]{128}$"} [0..1]
  n33 : 5 SHA3-256 : String{pattern="^[a-fA-F0-9]{64}$"} [0..1]
  n33 : 6 SHA3-512 : String{pattern="^[a-fA-F0-9]{128}$"} [0..1]
  n33 : 7 SSDEEP : String{pattern="^[a-zA-Z0-9/+:.]{1,128}$"} [0..1]
  n33 : 8 TLSH : String{pattern="^[a-zA-Z0-9]{70}$"} [0..1]
class "network_traffic_extensions_dictionary" as n34 <<Record>>
  n34 : 1 http_request_ext : http_request_ext [0..1]
  n34 : 2 icmp_ext : icmp_ext [0..1]
  n34 : 3 socket_ext : socket_ext [0..1]
  n34 : 4 tcp_ext : tcp_ext [0..1]
class "http_request_ext" as n35 <<Record>>
  n35 : 1 request_method : String
  n35 : 2 request_value : String
  n35 : 3 request_version : String [0..1]
  n35 : 4 request_header : ArrayOf{String} [0..1]
  n35 : 5 message_body_length : String [0..1]
  n35 : 6 message_body_data_ref : String [0..1]
class "icmp_ext" as n36 <<Record>>
  n36 : 1 icmp_type_hex : Hex
  n36 : 2 icmp_code_hex : Hex
class "socket_ext" as n37 <<Record>>
  n37 : 1 address_family : address_family
  n37 : 2 is_blocking : Boolean [0..1]
  n37 : 3 is_listening : String [0..1]
  n37 : 4 options : ArrayOf{socket_option} [0..1]
  n37 : 5 socket_type : socket_type [0..1]
  n37 : 6 socket_descriptor : Integer{0..*} [0..1]
  n37 : 7 socket_handle : Integer [0..1]
class "tcp_ext" as n38 <<Record>>
  n38 : 1 src_flags_hex : Hex
  n38 : 2 dst_flags_hex : Hex
class "socket_option" as n40 <<Record>>
  n40 : 1 socket_option : String{pattern="^{SO|ICMP|ICMP6|IP|IPV6|MCAST|TCP|IRLMP}{_[A-Z]+}+$"}
  n40 : 2 option_value : Integer
class "user_account_extensions_dictionary" as n42 <<Record>>
  n42 : 1 unix_account_ext : unix_account_ext [0..1]
class "unix_account_ext" as n43 <<Record>>
  n43 : 1 gid : Number [0..1]
class "process_extensions_dictionary" as n44 <<Record>>
  n44 : 1 windows_proccess_extension : windows_proccess_extension [0..1]
  n44 : 2 windows_service_ext : windows_service_ext [0..1]
class "windows_proccess_extension" as n45 <<Record>>
  n45 : 1 aslr_enabled : Boolean [0..1]
  n45 : 2 dep_enabled : Boolean [0..1]
  n45 : 3 priority : String [0..1]
  n45 : 4 owner_sid : String [0..1]
  n45 : 5 window_title : String [0..1]
  n45 : 6 startup_info : startup_info_dictionary [0..1]
  n45 : 7 integrity_level : windows_integrity_level_enum [0..1]
class "startup_info_dictionary" as n46 <<Array>>
  n46 : 1  : String [0..1]
  n46 : 2  : String [0..1]
  n46 : 3  : String [0..1]
  n46 : 4  : String [0..1]
  n46 : 5  : String [0..1]
  n46 : 6  : String [0..1]
  n46 : 7  : String [0..1]
  n46 : 8  : String [0..1]
  n46 : 9  : Null [0..1]
  n46 : 10  : Null [0..1]
  n46 : 11  : Integer [0..1]
  n46 : 12  : Integer [0..1]
  n46 : 13  : Integer [0..1]
  n46 : 14  : Integer [0..1]
  n46 : 15  : Integer [0..1]
  n46 : 16  : Integer [0..1]
  n46 : 17  : Integer [0..1]
  n46 : 18  : Integer{0..0} [0..1]
class "windows_service_ext" as n51 <<Record>>
  n51 : 1 service_name : String [0..1]
  n51 : 2 descriptions : ArrayOf{String}{1..*} [0..1]
  n51 : 3 display_name : String [0..1]
  n51 : 4 group_name : String [0..1]
  n51 : 5 start_type : start_type [0..1]
  n51 : 6 service_dll_refs : ArrayOf{String} [0..1]
  n51 : 7 service_type : service_type [0..1]
  n51 : 8 service_status : service_status [0..1]
class "object_marking_refs" as n54 <<ArrayOf>>
class "granular_marking" as n55 <<Record>>
  n55 : 1 selectors : identifier
  n55 : 2 lang : String
  n55 : 3 pattern : identifier
class "granular_markings" as n56 <<ArrayOf>>
class "extensions" as n59 <<Record>>
  n59 : 1 extension : String{pattern="^{[a-z][a-z0-9]*}+{-[a-z0-9]+}*\\-ext$"}
  n59 : 2 extension_definition : extension
class "properties" as n60 <<Array>>
  n60 : 1  : Binary [0..1]
  n60 : 2  : Hex [0..1]
  n60 : 3  : ArrayOf{String}{1..*} [0..1]
  n60 : 4  : String [0..1]
  n60 : 5  : Integer [0..1]
  n60 : 6  : Boolean [0..1]
  n60 : 7  : Number [0..1]
  n60 : 8  : extensions [0..1]
class "extension" as n61 <<Record>>
  n61 : 1 extension_type : extension_type_enum
  n61 : 2 properties : properties
  n1 "1 "--> "0..1" n2 : Artifact
  n1 "1 "--> "0..1" n4 : Autonomous-System
  n1 "1 "--> "0..1" n5 : Directory
  n1 "1 "--> "0..1" n6 : Domain-Name
  n1 "1 "--> "0..1" n7 : Email-Addr
  n1 "1 "--> "0..1" n9 : File
  n1 "1 "--> "0..1" n10 : IPv4-Addr
  n1 "1 "--> "0..1" n11 : IPv6-Addr
  n1 "1 "--> "0..1" n12 : Mac-Addr
  n1 "1 "--> "0..1" n13 : Mutex
  n1 "1 "--> "0..1" n14 : Network-Traffic
  n1 "1 "--> "0..1" n16 : Process
  n1 "1 "--> "0..1" n17 : Software
  n1 "1 "--> "0..1" n19 : URL
  n1 "1 "--> "0..1" n18 : User-Account
  n1 "1 "--> "0..1" n20 : Windows-Registry-Key
  n1 "1 "--> "0..1" n21 : X509-Certificate
  n2 "1 "--> "1" n19 : url
  n2 "1 "--> "0..1" n54 : object_marking_refs
  n2 "1 "--> "0..1" n56 : granular_markings
  n2 "1 "--> "0..1" n59 : core_extensions
  n4 "1 "--> "0..1" n54 : object_marking_refs
  n4 "1 "--> "0..1" n56 : granular_markings
  n4 "1 "--> "0..1" n59 : core_extensions
  n5 "1 "--> "0..1" n54 : object_marking_refs
  n5 "1 "--> "0..1" n56 : granular_markings
  n5 "1 "--> "0..1" n59 : core_extensions
  n6 "1 "--> "0..1" n54 : object_marking_refs
  n6 "1 "--> "0..1" n56 : granular_markings
  n6 "1 "--> "0..1" n59 : core_extensions
  n7 "1 "--> "0..1" n54 : object_marking_refs
  n7 "1 "--> "0..1" n56 : granular_markings
  n7 "1 "--> "0..1" n59 : core_extensions
  n8 "1 "--> "0..1" n54 : object_marking_refs
  n8 "1 "--> "0..1" n56 : granular_markings
  n8 "1 "--> "0..1" n59 : core_extensions
  n9 "1 "--> "0..1" n54 : object_marking_refs
  n9 "1 "--> "0..1" n56 : granular_markings
  n9 "1 "--> "0..1" n59 : core_extensions
  n10 "1 "--> "0..1" n54 : object_marking_refs
  n10 "1 "--> "0..1" n56 : granular_markings
  n10 "1 "--> "0..1" n59 : core_extensions
  n11 "1 "--> "0..1" n54 : object_marking_refs
  n11 "1 "--> "0..1" n56 : granular_markings
  n11 "1 "--> "0..1" n59 : core_extensions
  n12 "1 "--> "0..1" n54 : object_marking_refs
  n12 "1 "--> "0..1" n56 : granular_markings
  n12 "1 "--> "0..1" n59 : core_extensions
  n13 "1 "--> "0..1" n54 : object_marking_refs
  n13 "1 "--> "0..1" n56 : granular_markings
  n13 "1 "--> "0..1" n59 : core_extensions
  n14 "1 "--> "0..1" n34 : extensions
  n14 "1 "--> "0..1" n15 : ipfix
  n14 "1 "--> "0..1" n54 : object_marking_refs
  n14 "1 "--> "0..1" n56 : granular_markings
  n14 "1 "--> "0..1" n59 : core_extensions
  n16 "1 "--> "0..1" n44 : extensions
  n16 "1 "--> "0..1" n54 : object_marking_refs
  n16 "1 "--> "0..1" n56 : granular_markings
  n16 "1 "--> "0..1" n59 : core_extensions
  n17 "1 "--> "0..1" n54 : object_marking_refs
  n17 "1 "--> "0..1" n56 : granular_markings
  n17 "1 "--> "0..1" n59 : core_extensions
  n18 "1 "--> "0..1" n42 : user_account_extensions
  n18 "1 "--> "0..1" n54 : object_marking_refs
  n18 "1 "--> "0..1" n56 : granular_markings
  n18 "1 "--> "0..1" n59 : core_extensions
  n19 "1 "--> "0..1" n54 : object_marking_refs
  n19 "1 "--> "0..1" n56 : granular_markings
  n19 "1 "--> "0..1" n59 : core_extensions
  n20 "1 "--> "0..1" n54 : object_marking_refs
  n20 "1 "--> "0..1" n56 : granular_markings
  n20 "1 "--> "0..1" n59 : core_extensions
  n21 "1 "--> "0..1" n54 : object_marking_refs
  n21 "1 "--> "0..1" n56 : granular_markings
  n21 "1 "--> "0..1" n59 : core_extensions
  n30 "1 "--> "0..1" n31 : ntfs_ext
  n34 "1 "--> "0..1" n35 : http_request_ext
  n34 "1 "--> "0..1" n36 : icmp_ext
  n34 "1 "--> "0..1" n37 : socket_ext
  n34 "1 "--> "0..1" n38 : tcp_ext
  n42 "1 "--> "0..1" n43 : unix_account_ext
  n44 "1 "--> "0..1" n45 : windows_proccess_extension
  n44 "1 "--> "0..1" n51 : windows_service_ext
  n45 "1 "--> "0..1" n46 : startup_info
  n59 "1 "--> "1" n61 : extension_definition
  n60 "1 "--> "0..1" n59 : object
  n61 "1 "--> "1" n60 : properties
@enduml